<?xml version="1.0" encoding="UTF-8"?>
<svg id="Capa_1" data-name="Capa 1" xmlns="http://www.w3.org/2000/svg" xmlns:xlink="http://www.w3.org/1999/xlink" viewBox="0 0 1870 1080">
  <defs>
    <style>
      .cls-1 {
        fill: url(#Degradado_sin_nombre_107-2);
      }

      .cls-2 {
        fill: url(#Degradado_sin_nombre_107);
      }

      .cls-3 {
        fill: url(#Degradado_sin_nombre_97);
      }
    </style>
    <linearGradient id="Degradado_sin_nombre_97" data-name="Degradado sin nombre 97" x1="120.67" y1="70.26" x2="1676.67" y2="996.26" gradientUnits="userSpaceOnUse">
      <stop offset="0" stop-color="#cce0f4"/>
      <stop offset=".06" stop-color="#c2dbef"/>
      <stop offset=".16" stop-color="#a9cfe5"/>
      <stop offset=".29" stop-color="#7fbcd3"/>
      <stop offset=".44" stop-color="#46a1ba"/>
      <stop offset=".52" stop-color="#2692ad"/>
      <stop offset=".8" stop-color="#175b6c"/>
      <stop offset="1" stop-color="#043642"/>
    </linearGradient>
    <linearGradient id="Degradado_sin_nombre_107" data-name="Degradado sin nombre 107" x1="-248.36" y1="413.73" x2="203.64" y2="425.73" gradientUnits="userSpaceOnUse">
      <stop offset="0" stop-color="#cce0f4"/>
      <stop offset=".37" stop-color="#cadef2"/>
      <stop offset=".51" stop-color="#c3dbef"/>
      <stop offset=".6" stop-color="#b7d4e9"/>
      <stop offset=".68" stop-color="#a6cbdf"/>
      <stop offset=".74" stop-color="#90bed4"/>
      <stop offset=".8" stop-color="#75afc5"/>
      <stop offset=".86" stop-color="#559db4"/>
      <stop offset=".9" stop-color="#3089a0"/>
      <stop offset=".92" stop-color="#24829a"/>
      <stop offset=".95" stop-color="#145c6e"/>
      <stop offset=".98" stop-color="#08404e"/>
      <stop offset="1" stop-color="#043642"/>
    </linearGradient>
    <linearGradient id="Degradado_sin_nombre_107-2" data-name="Degradado sin nombre 107" x1="-402.22" y1="798.65" x2="228.36" y2="815.39" xlink:href="#Degradado_sin_nombre_107"/>
  </defs>
  <path class="cls-3" d="m1870,0H510s5.5,198.5-208.5,192.5c0,0-350-64-351.5,272.5s0,615,0,615h1920V0Z"/>
  <ellipse class="cls-2" cx="-50" cy="419" rx="232" ry="223" transform="translate(-374.09 148.77) rotate(-56.98)"/>
  <path class="cls-1" d="m193.83,930.05c-3.53,11.83-13.45,18.05-27.11,27.16-12.8,8.54-24.72,19.04-36.69,28.71-22.93,18.53-45.86,37.06-68.79,55.58-39.2,31.68-78.4,63.35-117.61,95.03-4.67,3.78-9.37,7.52-14.02,11.33l-322-124s-53.61-340.86-53.61-340.86c68.77-55.57,137.55-111.14,206.32-166.71,20.69-16.72,41.38-33.44,62.08-50.15,10.98-8.81,47.9,18.05,58.88,22.3,27.95,10.82,55.9,21.65,83.85,32.48,55,21.3,109.99,42.61,164.99,63.91,4.44,1.72,9.09,3.59,12.07,7.31,2.93,3.66,3.76,8.51,4.49,13.14,13.41,84.54,26.83,169.09,40.24,253.63,2.78,17.55,5.57,35.09,7.79,52.72.95,7.54.59,13.47-.89,18.42Z"/>
</svg>